<svg width="23" height="10" viewBox="0 0 23 10" fill="none" xmlns="http://www.w3.org/2000/svg">
<path fill-rule="evenodd" clip-rule="evenodd" d="M22.668 4.82425V5.20312C20.5202 5.66957 18.9609 7.84191 18.3199 9.99998C18.3194 10.0014 18.0556 9.91118 18.0478 9.90853C18.0399 9.90587 18.0565 9.90987 18.0569 9.90823C18.5427 8.25732 19.0761 6.42857 20.4231 5.2381C16.9854 5.31835 14.6296 5.44599 11.7876 5.46045L11.7869 5.46045C8.48586 5.47724 5.18751 5.49403 0.960533 5.61373L0.667969 5.62201V4.38272L20.4231 4.7619C19.0761 3.57143 18.5467 1.76085 18.0569 0.091782C18.0569 0.091782 17.7757 0.184079 18.0477 0.0920831C18.3196 8.67744e-05 18.3196 0 18.3196 0C18.955 2.16232 20.5198 4.35771 22.668 4.82425Z" fill="#2C2A27"/>
</svg>
