<svg width="22" height="10" viewBox="0 0 22 10" fill="none" xmlns="http://www.w3.org/2000/svg">
<path fill-rule="evenodd" clip-rule="evenodd" d="M6.8997e-07 5.17575L7.23092e-07 4.79688C2.14777 4.33043 3.70711 2.15809 4.34812 1.57294e-05C4.34854 -0.00141314 4.61238 0.0888192 4.62022 0.0914695C4.6281 0.0941341 4.61152 0.0901259 4.61103 0.091771C4.12525 1.74268 3.59184 3.57143 2.2449 4.7619C5.6826 4.68165 8.03842 4.55401 10.8804 4.53955L10.8811 4.53955C14.1821 4.52276 17.4805 4.50598 21.7074 4.38627L22 4.37799L22 5.61729L2.2449 5.23809C3.59184 6.42857 4.12128 8.23915 4.61103 9.90822C4.61103 9.90822 4.89223 9.81592 4.62028 9.90792C4.34834 9.99991 4.34836 10 4.34836 10C3.71299 7.83768 2.14817 5.64229 6.8997e-07 5.17575Z" fill="#2C2A27"/>
</svg>
